<?xml version="1.0" standalone="no"?><!DOCTYPE svg PUBLIC "-//W3C//DTD SVG 1.1//EN" "http://www.w3.org/Graphics/SVG/1.1/DTD/svg11.dtd"><svg t="1710568835970" class="icon" viewBox="0 0 1120 1024" version="1.1" xmlns="http://www.w3.org/2000/svg" p-id="9217" width="1400" height="1280" xmlns:xlink="http://www.w3.org/1999/xlink"><path d="M1009.473871 667.061753c0.491998-0.761996 0.962995-1.520993 1.451993-2.283988 0.863996-1.369993 1.717992-2.735987 2.558988-4.10598 90.547555-146.271281 53.359738-292.552563 44.613781-321.462421-0.110999-0.362998-0.242999-0.719996-0.358999-1.078995-0.802996-2.670987-1.298994-4.08498-1.298993-4.08498 0.018 0.101999 0.031 0.199999 0.047999 0.301999-7.063965-21.206896-15.886922-41.749795-26.34087-61.495698 54.89973-49.399757 50.499752-143.904293-9.859952-211.144963-60.384703-67.27267-153.915244-81.776598-208.898974-32.398841-9.399954 8.438959-17.021916 18.22691-22.967887 28.943858a564.847225 564.847225 0 0 0-68.216665-24.064882c-50.84875-14.34193-105.089484-22.079892-161.290207-22.079891V894.320637l-0.290999 0.274999 0.290999 128.08837c0.06 0.013 0.117999 0.03 0.179999 0.03l0.290998-192.916052L749.019151 627.295949c37.699815 66.031676 21.693893 234.13885 21.693893 234.13885 40.561801-18.557909 79.247611-41.371797 109.649462-62.866692 0.064-0.044 0.117999-0.088 0.179999-0.132999 58.470713-41.131798 99.906509-86.115577 128.931366-131.373355" fill="#AE5430" p-id="9218"></path><path d="M561.90307 894.320637V12.108971c-56.203724 0-110.442457 7.735962-161.289208 22.074891a565.429223 565.429223 0 0 0-68.217665 24.063882c-5.947971-10.715947-13.568933-20.500899-22.969887-28.939858-54.98573-49.379757-148.51327-34.873829-208.898974 32.399841-60.357704 67.23967-64.760682 161.741206-9.858951 211.141963-10.453949 19.749903-19.279905 40.291802-26.339871 61.494698 0.016-0.098 0.027-0.199999 0.044-0.297999 0 0-0.491998 1.413993-1.301994 4.08898-0.111999 0.359998-0.237999 0.714996-0.355998 1.073995-8.744957 28.906858-45.929774 175.188139 44.617781 321.462421 0.844996 1.369993 1.697992 2.736987 2.559987 4.10298 0.483998 0.765996 0.957995 1.525993 1.449993 2.288988 29.029857 45.257778 70.457654 90.237557 128.929367 131.373355 0.061 0.041 0.118999 0.089 0.179999 0.128999 30.401851 21.497894 69.090661 44.312782 109.651461 62.868692 0 0-16.008921-168.109174 21.693894-234.13785L561.430072 829.794954l0.288999 192.920052c0.061 0 0.121999-0.021 0.182999-0.031l0.290998-128.08937-0.289998-0.273999z" fill="#DA8423" p-id="9219"></path><path d="M371.751004 627.267949s0.02 0.027 0.028 0.03l0.003-0.024-0.03-0.007z m191.44306 42.423791l-1.069995-0.237998 0.05 152.313251c0.338998 0.131999 0.688997 0.284999 1.019995 0.406998V669.69174z" fill="#EA8F13" p-id="9220"></path><path d="M286.457423 73.26667c39.746805 32.245842 3.887981 64.356684-39.829804 113.062445-43.719785 48.702761-93.753539 88.439566-118.491418 63.312689-41.719795-42.369792-44.665781-111.415453-0.942996-160.122214 43.715785-48.705761 113.089444-53.716736 159.263218-16.25292" fill="#884023" p-id="9221"></path><path d="M371.798004 627.297949c-31.507845 55.178729-25.503875 181.650108-22.683889 221.716911 0.392998 5.580973-5.403973 9.479953-10.443949 7.056965-36.359821-17.487914-70.687653-38.036813-98.218517-57.504718C-10.302119 621.241978 51.142579 377.463176 62.714522 339.206364c-7.121965 22.35689-12.30094 45.431777-15.316925 69.10366a6.301969 6.301969 0 0 1-0.278998 1.219994c-4.490978 13.329935-83.999587 252.875758-26.052872 332.410368 0.678997 0.921995 1.531992 1.711992 2.569987 2.189989 4.765977 2.193989 19.740903 4.14998 57.111719-23.739884 4.477978-3.341984 10.891946-0.615997 11.524944 4.939976v0.014c1.139994 10.23995 23.775883 111.014455 42.018793 127.827372 0.267999 0.247999 0.521997 0.457998 0.819996 0.664997 3.385983 2.375988 22.676889 12.771937 51.248749-33.389836a7.313964 7.313964 0 0 1 2.484987-2.439988c2.734987-1.609992 8.16796-3.875981 11.245945 1.114994 4.185979 6.787967 94.826534 100.833505 200.797014 102.888495 2.202989 0.044 4.266979 1.053995 5.603972 2.803986 12.926937 16.896917 83.764589 105.159483 148.69327 98.863515 3.718982-0.359998 6.531968-3.559983 6.524968-7.299965l-0.273999-183.701097a7.269964 7.269964 0 0 0-1.95999-4.969976l-187.679078-200.409015" fill="#EDE8C8" p-id="9222"></path><path d="M293.749387 480.839668c30.47285 34.979828 120.393409 57.697717 173.909146-108.669466a9.239955 9.239955 0 0 0-3.005985-10.004951c-21.160896-17.099916-108.041469-80.341605-196.102037-44.84378-3.222984 1.297994-14.919927 6.230969-17.619914 8.685958 0 0-17.645913 15.169925-10.821946 42.552791 0.927995 3.732982 10.462949 29.455855 12.14994 32.913838 4.316979 11.873942 9.919951 22.573889 15.498924 33.419836a569.617202 569.617202 0 0 0 15.719923 28.51586l10.271949 17.429914z" fill="#5D1E1C" p-id="9223"></path><path d="M324.037238 341.291354c23.385885-0.484998 69.333659 2.969985 95.934529 34.323831 4.551978 5.366974 4.07498 13.367934-1.279994 17.930912-23.131886 19.701903-86.674574 62.827691-106.825475-37.161818-1.552992-7.712962 4.309979-14.930927 12.17094-15.092925" fill="#F6DC8F" p-id="9224"></path><path d="M827.083767 480.839668c-30.47585 34.979828-120.396409 57.697717-173.913145-108.669466-1.164994-3.629982 0.041-7.607963 3.006985-10.004951 21.164896-17.099916 108.042469-80.341605 196.106037-44.84378 3.222984 1.297994 14.917927 6.230969 17.619913 8.685958 0 0 17.642913 15.169925 10.821947 42.552791-0.927995 3.732982-10.466949 29.455855-12.15494 32.913838-4.314979 11.873942-9.917951 22.573889-15.497924 33.419836a569.561202 569.561202 0 0 1-15.717923 28.51586l-10.26995 17.429914z" fill="#5D1E1C" p-id="9225"></path><path d="M796.792916 341.291354c-23.384885-0.484998-69.328659 2.969985-95.933529 34.323831-4.551978 5.366974-4.07498 13.367934 1.283994 17.930912 23.129886 19.701903 86.673574 62.827691 106.821475-37.161818 1.555992-7.712962-4.307979-14.930927-12.17194-15.092925" fill="#EAC985" p-id="9226"></path><path d="M561.95307 12.109971c-77.27762-1.535992-161.289208 22.073892-161.289208 22.073891l72.398644 332.072369c-51.949745 111.604452-82.962592 187.569079-101.242502 260.997718 0.004 0.007 0.008 0.01 0.01 0.02l190.340065 42.179793-0.216999-657.343771z" fill="#DDB569" p-id="9227"></path><path d="M371.804004 627.272949c-0.003 0.008-0.003 0.018-0.006 0.024 1.063995 1.356993 136.802328 173.676147 190.397064 194.473044l-0.049999-152.317251-190.341065-42.178793z" fill="#894024" p-id="9228"></path><path d="M562.195068 175.765167c-32.706839 1.921991-69.349659 17.951912-105.67348 60.117704 0 0 47.892765-24.37288 105.659481-28.53686" fill="#894125" p-id="9229"></path><path d="M562.195068 98.648545c-42.73779 2.427988-98.900514 20.4469-138.34632 73.194641 0 0 69.034661-37.964814 138.051322-36.042823" fill="#893F24" p-id="9230"></path><path d="M749.063151 627.267949s-0.02 0.027-0.024 0.03c-0.003-0.007-0.003-0.017-0.007-0.024l0.031-0.007z" fill="#EA8F13" p-id="9231"></path><path d="M834.357732 73.26667c-39.744805 32.245842-3.888981 64.356684 39.830804 113.062445 43.717785 48.702761 93.755539 88.439566 118.493418 63.312689 41.715795-42.369792 44.661781-111.415453 0.941995-160.122214-43.719785-48.705761-113.092444-53.716736-159.266217-16.25292" fill="#5C1214" p-id="9232"></path><path d="M749.017151 627.297949c37.701815 66.027676 21.695893 234.13685 21.695893 234.13685 40.561801-18.555909 79.247611-41.369797 109.649462-62.867692 250.757768-177.324129 189.30907-421.103931 177.737127-459.360743 7.188965 22.559889 12.392939 45.848775 15.401924 69.743657 0 0 86.527575 253.116757 25.547874 333.93336 0 0-12.19594 14.483929-65.935676-27.828863 0 0-3.425983 0-4.572977 10.289949-1.141994 10.295949-24.007882 112.075449-42.305792 128.085371 0 0-20.578899 18.29791-52.589742-34.307832 0 0-8.685957-6.861966-12.918937 0-4.233979 6.862966-96.846524 102.925494-204.321996 102.925495 0 0-83.887588 115.307434-157.310227 100.667505l0.290998-192.920052 189.632069-202.497005z" fill="#D8CC99" p-id="9233"></path><path d="M558.841085 12.109971c77.27762-1.535992 161.290208 22.073892 161.290208 22.073891l-72.399645 332.072369c51.156749 109.90546 82.016597 185.24909 100.397507 257.643734 0.292999 1.139994 0.549997 2.241989 0.831996 3.373984l-190.337065 42.179793 0.216999-657.343771z" fill="#CFA763" p-id="9234"></path><path d="M749.013151 627.272949c0 0.008 0.004 0.018 0.004 0.024-1.064995 1.356993-136.804328 173.676147-190.394065 194.473044l0.05-152.317251 190.339065-42.178793z" fill="#5A1513" p-id="9235"></path><path d="M558.623086 175.765167c32.706839 1.921991 69.345659 17.951912 105.672481 60.117704 0 0-47.892765-24.37288-105.662481-28.53686m-0.01-108.697466c42.73279 2.427988 98.899514 20.4469 138.34132 73.194641 0 0-69.029661-37.964814-138.046321-36.042823" fill="#520A0F" p-id="9236"></path><path d="M382.532951 907.561572l180.126115-65.567678-0.239999-56.414723z" fill="#7B522E" p-id="9237"></path><path d="M738.285203 907.561572l-180.129115-65.567678 0.239999-56.414723z" fill="#300A09" p-id="9238"></path></svg>